<?xml version="1.0" encoding="UTF-8" standalone="no"?>
<!-- Created with Inkscape (http://www.inkscape.org/) -->

<svg
   xmlns:dc="http://purl.org/dc/elements/1.1/"
   xmlns:cc="http://creativecommons.org/ns#"
   xmlns:rdf="http://www.w3.org/1999/02/22-rdf-syntax-ns#"
   xmlns:svg="http://www.w3.org/2000/svg"
   xmlns="http://www.w3.org/2000/svg"
   xmlns:xlink="http://www.w3.org/1999/xlink"
   xmlns:sodipodi="http://sodipodi.sourceforge.net/DTD/sodipodi-0.dtd"
   xmlns:inkscape="http://www.inkscape.org/namespaces/inkscape"
   version="1.1"
   id="svg2"
   xml:space="preserve"
   width="1122.6667"
   height="793.33331"
   viewBox="0 0 1122.6667 793.33331"
   sodipodi:docname="Contexte_team.svg"
   inkscape:version="0.92.5 (2060ec1f9f, 2020-04-08)"><metadata
     id="metadata8"><rdf:RDF><cc:Work
         rdf:about=""><dc:format>image/svg+xml</dc:format><dc:type
           rdf:resource="http://purl.org/dc/dcmitype/StillImage" /><dc:title></dc:title></cc:Work></rdf:RDF></metadata><defs
     id="defs6"><linearGradient
       inkscape:collect="always"
       id="linearGradient941"><stop
         style="stop-color:#d9cbf7;stop-opacity:1;"
         offset="0"
         id="stop937" /><stop
         style="stop-color:#d9cbf7;stop-opacity:0;"
         offset="1"
         id="stop939" /></linearGradient><clipPath
       clipPathUnits="userSpaceOnUse"
       id="clipPath52"><path
         d="M 0,0 H 843 V 595 H 0 Z"
         id="path50"
         inkscape:connector-curvature="0" /></clipPath><clipPath
       clipPathUnits="userSpaceOnUse"
       id="clipPath56"><path
         d="m 52.051,417.332 h 713.281 c 6.125,0 11.055,4.93 11.055,11.051 v 76.566 c 0,6.121 -4.93,11.051 -11.055,11.051 H 52.051 C 45.93,516 41,511.07 41,504.949 v -76.566 c 0,-6.121 4.93,-11.051 11.051,-11.051 z"
         id="path54"
         inkscape:connector-curvature="0" /></clipPath><clipPath
       clipPathUnits="userSpaceOnUse"
       id="clipPath60"><path
         d="M 32.978134,257.54935 H 768.97815 v 99 H 32.978134 Z"
         id="path58"
         inkscape:connector-curvature="0" /></clipPath><linearGradient
       x1="408.2493"
       y1="356.54959"
       x2="408.2493"
       y2="254.93295"
       gradientUnits="userSpaceOnUse"
       spreadMethod="pad"
       id="linearGradient66"><stop
         style="stop-opacity:1;stop-color:#ffffff"
         offset="0"
         id="stop62" /><stop
         style="stop-opacity:0;stop-color:#ffffff"
         offset="1"
         id="stop64" /></linearGradient><mask
       maskUnits="userSpaceOnUse"
       x="0"
       y="0"
       width="1"
       height="1"
       id="mask68"><g
         id="g74"><g
           clip-path="url(#clipPath60)"
           id="g72"><path
             d="M 32.978134,257.54935 H 768.97815 v 99 H 32.978134 Z"
             style="fill:url(#linearGradient66);stroke:none"
             id="path70"
             inkscape:connector-curvature="0" /></g></g></mask><linearGradient
       x1="408.2493"
       y1="356.54959"
       x2="408.2493"
       y2="254.93295"
       gradientUnits="userSpaceOnUse"
       spreadMethod="pad"
       id="linearGradient80"><stop
         style="stop-opacity:1;stop-color:#ac82ff"
         offset="0"
         id="stop76" /><stop
         style="stop-opacity:1;stop-color:#ac82ff"
         offset="1"
         id="stop78" /></linearGradient><linearGradient
       inkscape:collect="always"
       xlink:href="#linearGradient941"
       id="linearGradient943"
       x1="412.21399"
       y1="515.58264"
       x2="412.21399"
       y2="415.99576"
       gradientUnits="userSpaceOnUse" /></defs><sodipodi:namedview
     pagecolor="#ffffff"
     bordercolor="#666666"
     borderopacity="1"
     objecttolerance="10"
     gridtolerance="10"
     guidetolerance="10"
     inkscape:pageopacity="0"
     inkscape:pageshadow="2"
     inkscape:window-width="1848"
     inkscape:window-height="1016"
     id="namedview4"
     showgrid="false"
     inkscape:zoom="0.594958"
     inkscape:cx="596.30814"
     inkscape:cy="454.50449"
     inkscape:window-x="72"
     inkscape:window-y="27"
     inkscape:window-maximized="1"
     inkscape:current-layer="g10" /><g
     id="g10"
     inkscape:groupmode="layer"
     inkscape:label="Contexte"
     transform="matrix(1.3333333,0,0,1.3333333,0,1.65e-5)"><rect
       style="opacity:1;fill:url(#linearGradient943);fill-opacity:1;stroke:none;stroke-width:0.22500002;stroke-miterlimit:4;stroke-dasharray:none;stroke-dashoffset:0;stroke-opacity:1"
       id="rect935"
       width="761.72931"
       height="98.667999"
       x="43.520786"
       y="417.31201"
       ry="14.811971" /><path
       inkscape:connector-curvature="0"
       id="path14"
       style="fill:#250070;fill-opacity:1;fill-rule:nonzero;stroke:none"
       d="m 138.961,108.008 v -3.086 c 0.648,0.371 1.332,0.66 2.047,0.863 0.715,0.192 1.301,0.285 1.762,0.285 0.765,0 1.152,-0.277 1.152,-0.828 0,-0.16 -0.035,-0.297 -0.098,-0.402 -0.062,-0.117 -0.176,-0.215 -0.336,-0.289 -0.16,-0.082 -0.32,-0.149 -0.48,-0.192 -0.149,-0.05 -0.379,-0.121 -0.688,-0.207 -0.308,-0.097 -0.578,-0.179 -0.8,-0.257 -0.969,-0.329 -1.711,-0.75 -2.223,-1.262 -0.504,-0.512 -0.754,-1.207 -0.754,-2.082 0,-1.117 0.395,-2.008 1.184,-2.672 0.8,-0.672 1.851,-1.008 3.152,-1.008 1.387,0 2.644,0.285 3.777,0.848 v 3.043 c -0.652,-0.364 -1.328,-0.649 -2.031,-0.848 -0.695,-0.203 -1.266,-0.305 -1.715,-0.305 -0.68,0 -1.023,0.235 -1.023,0.703 0,0.149 0.035,0.274 0.097,0.368 0.063,0.097 0.172,0.183 0.321,0.258 0.16,0.074 0.312,0.136 0.465,0.191 0.148,0.043 0.367,0.105 0.656,0.191 0.285,0.086 0.543,0.164 0.765,0.239 1.004,0.355 1.766,0.796 2.289,1.328 0.524,0.523 0.786,1.246 0.786,2.16 0,1.152 -0.418,2.07 -1.25,2.754 -0.832,0.672 -1.926,1.008 -3.282,1.008 -1.386,0 -2.644,-0.266 -3.773,-0.801 z m 10.312,-0.367 c -0.851,-0.789 -1.281,-1.77 -1.281,-2.946 0,-1.172 0.43,-2.148 1.281,-2.925 0.864,-0.79 1.954,-1.184 3.266,-1.184 1.309,0 2.395,0.394 3.246,1.184 0.863,0.777 1.297,1.753 1.297,2.925 0,1.176 -0.434,2.157 -1.297,2.946 -0.851,0.777 -1.937,1.168 -3.246,1.168 -1.312,0 -2.402,-0.391 -3.266,-1.168 z m 2.258,-3.985 c -0.269,0.278 -0.402,0.625 -0.402,1.039 0,0.418 0.133,0.77 0.402,1.059 0.266,0.277 0.602,0.414 1.008,0.414 0.402,0 0.738,-0.137 1.008,-0.414 0.265,-0.289 0.398,-0.641 0.398,-1.059 0,-0.414 -0.133,-0.761 -0.398,-1.039 -0.27,-0.289 -0.606,-0.433 -1.008,-0.433 -0.406,0 -0.742,0.144 -1.008,0.433 z m 6.321,1.055 c 0,-1.215 0.464,-2.207 1.394,-2.977 0.938,-0.765 2.063,-1.148 3.375,-1.148 0.863,0 1.606,0.152 2.223,0.461 v 2.738 c -0.723,-0.418 -1.391,-0.625 -2,-0.625 -0.532,0 -0.965,0.145 -1.297,0.434 -0.328,0.285 -0.492,0.656 -0.492,1.101 0,0.461 0.164,0.828 0.492,1.106 0.344,0.277 0.785,0.414 1.328,0.414 0.781,0 1.473,-0.219 2.082,-0.656 v 2.738 c -0.617,0.34 -1.426,0.512 -2.418,0.512 -1.375,0 -2.5,-0.383 -3.375,-1.153 -0.875,-0.777 -1.312,-1.761 -1.312,-2.945 z m 8.972,-5.406 c -0.316,-0.321 -0.476,-0.711 -0.476,-1.168 0,-0.461 0.16,-0.848 0.476,-1.168 0.332,-0.321 0.727,-0.481 1.188,-0.481 0.457,0 0.847,0.16 1.168,0.481 0.328,0.32 0.496,0.707 0.496,1.168 0,0.457 -0.168,0.847 -0.496,1.168 -0.321,0.32 -0.711,0.48 -1.168,0.48 -0.461,0 -0.856,-0.16 -1.188,-0.48 z m -0.398,9.328 v -7.871 h 3.168 v 7.871 z m 12.156,-2.832 v 2.398 c -0.875,0.406 -1.898,0.61 -3.074,0.61 -1.406,0 -2.543,-0.364 -3.406,-1.09 -0.852,-0.723 -1.282,-1.707 -1.282,-2.942 0,-1.25 0.418,-2.257 1.25,-3.023 0.844,-0.781 1.852,-1.168 3.024,-1.168 1.078,0 2,0.34 2.769,1.023 0.778,0.68 1.168,1.684 1.168,3.008 0,0.309 -0.019,0.574 -0.051,0.801 h -4.941 c 0.277,0.746 0.91,1.117 1.902,1.117 0.852,0 1.735,-0.246 2.641,-0.734 z m -3.504,-2.977 c -0.578,0 -0.937,0.321 -1.09,0.961 h 2.192 c -0.125,-0.64 -0.496,-0.961 -1.102,-0.961 z m 2.031,-5.824 -1.918,2.625 h -2.05 L 174.551,97 Z m 4.426,10.992 c -0.512,-0.512 -0.769,-1.34 -0.769,-2.48 v -2.254 h -1.168 v -2.496 h 1.168 v -1.969 l 3.168,-0.543 v 2.512 h 1.89 v 2.496 h -1.89 v 2.031 c 0,0.649 0.261,0.977 0.785,0.977 0.289,0 0.656,-0.086 1.105,-0.258 v 2.418 c -0.554,0.254 -1.211,0.383 -1.969,0.383 -1.003,0 -1.777,-0.274 -2.32,-0.817 z m 12.828,-2.191 v 2.398 c -0.875,0.406 -1.898,0.61 -3.074,0.61 -1.406,0 -2.543,-0.364 -3.406,-1.09 -0.852,-0.723 -1.281,-1.707 -1.281,-2.942 0,-1.25 0.418,-2.257 1.25,-3.023 0.843,-0.781 1.851,-1.168 3.023,-1.168 1.078,0 2,0.34 2.77,1.023 0.777,0.68 1.167,1.684 1.167,3.008 0,0.309 -0.019,0.574 -0.05,0.801 h -4.942 c 0.278,0.746 0.91,1.117 1.903,1.117 0.851,0 1.734,-0.246 2.64,-0.734 z m -3.504,-2.977 c -0.578,0 -0.937,0.321 -1.089,0.961 h 2.191 c -0.125,-0.64 -0.496,-0.961 -1.102,-0.961 z m 2.032,-5.824 -1.918,2.625 h -2.051 L 190.332,97 Z m 6.57,7.711 c 0,-1.215 0.465,-2.207 1.394,-2.977 0.938,-0.765 2.063,-1.148 3.375,-1.148 0.864,0 1.606,0.152 2.223,0.461 v 2.738 c -0.723,-0.418 -1.391,-0.625 -2,-0.625 -0.531,0 -0.965,0.145 -1.297,0.434 -0.328,0.285 -0.492,0.656 -0.492,1.101 0,0.461 0.164,0.828 0.492,1.106 0.344,0.277 0.785,0.414 1.328,0.414 0.782,0 1.473,-0.219 2.082,-0.656 v 2.738 c -0.617,0.34 -1.425,0.512 -2.418,0.512 -1.375,0 -2.5,-0.383 -3.375,-1.153 -0.875,-0.777 -1.312,-1.761 -1.312,-2.945 z m 8.574,3.922 V 96.41 h 3.168 v 12.223 z m 5.258,-9.328 c -0.316,-0.321 -0.477,-0.711 -0.477,-1.168 0,-0.461 0.161,-0.848 0.477,-1.168 0.332,-0.321 0.727,-0.481 1.187,-0.481 0.458,0 0.848,0.16 1.168,0.481 0.329,0.32 0.497,0.707 0.497,1.168 0,0.457 -0.168,0.847 -0.497,1.168 -0.32,0.32 -0.71,0.48 -1.168,0.48 -0.46,0 -0.855,-0.16 -1.187,-0.48 z m -0.398,9.328 v -7.871 h 3.167 v 7.871 z m 12.156,-2.832 v 2.398 c -0.875,0.406 -1.899,0.61 -3.074,0.61 -1.407,0 -2.543,-0.364 -3.407,-1.09 -0.851,-0.723 -1.281,-1.707 -1.281,-2.942 0,-1.25 0.418,-2.257 1.25,-3.023 0.844,-0.781 1.852,-1.168 3.023,-1.168 1.079,0 2,0.34 2.77,1.023 0.777,0.68 1.168,1.684 1.168,3.008 0,0.309 -0.02,0.574 -0.051,0.801 h -4.941 c 0.277,0.746 0.91,1.117 1.902,1.117 0.852,0 1.735,-0.246 2.641,-0.734 z m -3.504,-2.977 c -0.578,0 -0.938,0.321 -1.09,0.961 h 2.191 c -0.125,-0.64 -0.496,-0.961 -1.101,-0.961 z m 5.285,5.809 v -7.871 h 3.106 v 0.605 l 0.031,0.016 c 0.715,-0.531 1.476,-0.797 2.289,-0.797 0.82,0 1.492,0.25 2.015,0.75 0.512,0.492 0.766,1.273 0.766,2.352 v 4.945 h -3.168 v -4.465 c 0,-0.352 -0.074,-0.602 -0.223,-0.75 -0.148,-0.152 -0.351,-0.227 -0.609,-0.227 -0.394,0 -0.738,0.141 -1.039,0.418 v 5.024 z m 11.172,-0.641 c -0.512,-0.512 -0.77,-1.34 -0.77,-2.48 v -2.254 h -1.168 v -2.496 h 1.168 v -1.969 l 3.168,-0.543 v 2.512 h 1.891 v 2.496 h -1.891 v 2.031 c 0,0.649 0.262,0.977 0.786,0.977 0.289,0 0.656,-0.086 1.105,-0.258 v 2.418 c -0.555,0.254 -1.211,0.383 -1.969,0.383 -1.004,0 -1.777,-0.274 -2.32,-0.817 z m 12.828,-2.191 v 2.398 c -0.875,0.406 -1.898,0.61 -3.074,0.61 -1.406,0 -2.543,-0.364 -3.406,-1.09 -0.852,-0.723 -1.282,-1.707 -1.282,-2.942 0,-1.25 0.418,-2.257 1.25,-3.023 0.844,-0.781 1.852,-1.168 3.024,-1.168 1.078,0 2,0.34 2.769,1.023 0.778,0.68 1.168,1.684 1.168,3.008 0,0.309 -0.019,0.574 -0.051,0.801 h -4.941 c 0.277,0.746 0.91,1.117 1.902,1.117 0.852,0 1.735,-0.246 2.641,-0.734 z m -3.504,-2.977 c -0.578,0 -0.937,0.321 -1.09,0.961 h 2.192 c -0.125,-0.64 -0.496,-0.961 -1.102,-0.961 z m 11.981,0.574 c -0.321,0.321 -0.711,0.481 -1.168,0.481 -0.461,0 -0.856,-0.16 -1.188,-0.481 -0.316,-0.316 -0.476,-0.707 -0.476,-1.168 0,-0.457 0.16,-0.847 0.476,-1.168 0.332,-0.316 0.727,-0.476 1.188,-0.476 0.457,0 0.847,0.16 1.168,0.476 0.328,0.321 0.496,0.711 0.496,1.168 0,0.461 -0.168,0.852 -0.496,1.168 z m -2.356,4.93 c -0.316,-0.32 -0.476,-0.711 -0.476,-1.168 0,-0.457 0.16,-0.848 0.476,-1.168 0.332,-0.32 0.727,-0.48 1.188,-0.48 0.457,0 0.847,0.16 1.168,0.48 0.328,0.32 0.496,0.711 0.496,1.168 0,0.457 -0.168,0.848 -0.496,1.168 -0.321,0.32 -0.711,0.481 -1.168,0.481 -0.461,0 -0.856,-0.161 -1.188,-0.481 z" /><path
       inkscape:connector-curvature="0"
       id="path16"
       style="fill:#ffc371;fill-opacity:1;fill-rule:nonzero;stroke:none"
       d="m 138,312.254 h 2 v 57.379 h -2 z" /><path
       inkscape:connector-curvature="0"
       id="path18"
       style="fill:#ff5f6d;fill-opacity:1;fill-rule:nonzero;stroke:none"
       d="m 138,254.879 h 2 v 57.375 h -2 z" /><path
       inkscape:connector-curvature="0"
       id="path20"
       style="fill:#8e2de2;fill-opacity:1;fill-rule:nonzero;stroke:none"
       d="m 138,199.008 h 2 v 57.379 h -2 z" /><path
       inkscape:connector-curvature="0"
       id="path22"
       style="fill:#4a00e0;fill-opacity:1;fill-rule:nonzero;stroke:none"
       d="m 138,141.633 h 2 v 57.375 h -2 z" /><path
       inkscape:connector-curvature="0"
       id="path24"
       style="fill:#ffc371;fill-opacity:1;fill-rule:nonzero;stroke:none"
       d="m 80.469,53.875 h 12.559 v 2.09 H 80.469 Z" /><path
       inkscape:connector-curvature="0"
       id="path26"
       style="fill:#ff5f6d;fill-opacity:1;fill-rule:nonzero;stroke:none"
       d="m 92.977,53.875 h 12.559 v 2.09 H 92.977 Z" /><path
       inkscape:connector-curvature="0"
       id="path28"
       style="fill:#8e2de2;fill-opacity:1;fill-rule:nonzero;stroke:none"
       d="m 105.438,53.875 h 12.609 v 2.09 h -12.609 z" /><path
       inkscape:connector-curvature="0"
       id="path30"
       style="fill:#4a00e0;fill-opacity:1;fill-rule:nonzero;stroke:none"
       d="m 117.949,53.875 h 12.559 v 2.09 h -12.559 z" /><path
       inkscape:connector-curvature="0"
       id="path32"
       style="fill:#250070;fill-opacity:1;fill-rule:nonzero;stroke:none"
       d="m 84.727,30.637 c -2.348,0 -4.258,1.867 -4.258,4.16 v 16.191 h 2.773 v -6.89 h 2.969 v 6.89 h 2.773 V 34.797 c 0,-2.293 -1.91,-4.16 -4.257,-4.16 z m -1.485,10.75 v -6.59 c 0,-0.801 0.664,-1.449 1.485,-1.449 0.816,0 1.484,0.648 1.484,1.449 v 6.59 z" /><path
       inkscape:connector-curvature="0"
       id="path34"
       style="fill:#250070;fill-opacity:1;fill-rule:nonzero;stroke:none"
       d="m 103.598,30.637 c -2.348,0 -4.258,1.867 -4.258,4.16 v 12.066 c 0,2.293 1.91,4.157 4.258,4.157 2.347,0 4.257,-1.864 4.257,-4.157 v -6.836 h -4.257 v 2.711 h 1.48 v 4.125 c 0,0.797 -0.664,1.449 -1.48,1.449 -0.821,0 -1.485,-0.652 -1.485,-1.449 V 34.797 c 0,-0.801 0.664,-1.449 1.485,-1.449 0.816,0 1.48,0.648 1.48,1.449 v 2.613 h 2.777 v -2.613 c 0,-2.293 -1.91,-4.16 -4.257,-4.16 z" /><path
       inkscape:connector-curvature="0"
       id="path36"
       style="fill:#250070;fill-opacity:1;fill-rule:nonzero;stroke:none"
       d="m 116.855,30.637 c -2.347,0 -4.257,1.863 -4.257,4.156 v 12.066 c 0,2.293 1.91,4.161 4.257,4.161 2.348,0 4.258,-1.868 4.258,-4.161 V 34.793 c 0,-2.293 -1.91,-4.156 -4.258,-4.156 z m 1.485,16.222 c 0,0.801 -0.668,1.45 -1.485,1.45 -0.82,0 -1.484,-0.649 -1.484,-1.45 V 34.793 c 0,-0.797 0.664,-1.449 1.484,-1.449 0.817,0 1.485,0.652 1.485,1.449 z" /><path
       inkscape:connector-curvature="0"
       id="path38"
       style="fill:#250070;fill-opacity:1;fill-rule:nonzero;stroke:none"
       d="m 130.531,37.41 v -2.613 c 0,-2.293 -1.91,-4.16 -4.258,-4.16 -2.347,0 -4.257,1.867 -4.257,4.16 v 0.707 c 0,1.137 0.289,2.266 0.832,3.262 0.621,1.136 1.464,2.172 2.504,3.074 l 0.007,-0.004 c 0.793,0.684 1.43,1.465 1.895,2.316 0.328,0.606 0.504,1.293 0.504,1.989 v 0.707 c 0,0.8 -0.664,1.449 -1.485,1.449 -0.816,0 -1.484,-0.649 -1.484,-1.449 v -2.614 h -2.773 v 2.614 c 0,2.293 1.91,4.16 4.257,4.16 2.348,0 4.258,-1.867 4.258,-4.16 v -0.707 c 0,-1.137 -0.285,-2.266 -0.828,-3.262 -0.625,-1.141 -1.465,-2.176 -2.508,-3.078 l -0.007,0.008 c -0.79,-0.688 -1.426,-1.465 -1.891,-2.321 -0.332,-0.601 -0.508,-1.289 -0.508,-1.984 v -0.707 c 0,-0.801 0.668,-1.449 1.484,-1.449 0.821,0 1.485,0.648 1.485,1.449 v 2.613 z" /><path
       inkscape:connector-curvature="0"
       id="path40"
       style="fill:#250070;fill-opacity:1;fill-rule:nonzero;stroke:none"
       d="M 94.082,30.637 H 89.824 V 51.02 h 2.774 v -6.899 h 1.484 c 0.816,0 1.48,0.652 1.48,1.449 v 5.45 h 2.778 v -5.45 c 0,-1.035 -0.391,-1.984 -1.035,-2.711 0.218,-0.238 0.383,-0.472 0.496,-0.671 0.511,-0.887 0.539,-1.747 0.539,-1.911 v -5.48 c 0,-2.293 -1.91,-4.16 -4.258,-4.16 z m -1.484,10.777 v -8.066 h 1.484 c 0.816,0 1.48,0.648 1.48,1.449 v 5.465 c 0,0.043 -0.027,0.367 -0.21,0.648 -0.141,0.215 -0.426,0.504 -1.274,0.504 z m 2.968,-1.148 v 0.011 c 0,0 0,-0.004 0,-0.011 z" /><path
       inkscape:connector-curvature="0"
       id="path42"
       style="fill:#250070;fill-opacity:1;fill-rule:nonzero;stroke:none"
       d="m 108.918,27.301 h 2.773 v 2.664 h -2.773 z" /><path
       inkscape:connector-curvature="0"
       id="path44"
       style="fill:#250070;fill-opacity:1;fill-rule:nonzero;stroke:none"
       d="m 108.918,30.953 h 2.773 v 20.066 h -2.773 z" /><g
       id="g46"><g
         id="g48" /><g
         id="g98"><g
           style="opacity:0.5"
           id="g96"
           clip-path="url(#clipPath52)"><g
             id="g94"><g
               id="g92"><g
                 id="g90"
                 clip-path="url(#clipPath56)"><g
                   id="g88"
                   transform="translate(8.021866,159.45066)"><g
                     id="g82" /><g
                     id="g86"
                     mask="url(#mask68)"><path
                       inkscape:connector-curvature="0"
                       id="path84"
                       style="fill:url(#linearGradient80);stroke:none"
                       d="m 52.051,417.332 h 713.281 c 6.125,0 11.055,4.93 11.055,11.051 v 76.566 c 0,6.121 -4.93,11.051 -11.055,11.051 H 52.051 C 45.93,516 41,511.07 41,504.949 v -76.566 c 0,-6.121 4.93,-11.051 11.051,-11.051 z" /></g></g></g></g></g></g></g></g><path
       inkscape:connector-curvature="0"
       id="path100"
       style="fill:#4a00e0;fill-opacity:1;fill-rule:nonzero;stroke:none"
       d="M 52.051,417.312 C 45.93,417.312 41,422.242 41,428.367 v 76.563 c 0,6.121 4.93,11.05 11.051,11.05 H 56 v -98.668 z" /><flowRoot
       xml:space="preserve"
       id="flowRoot945"
       style="font-style:normal;font-variant:normal;font-weight:normal;font-stretch:normal;font-size:18.66666664px;line-height:1.25;font-family:'Azo Sans';-inkscape-font-specification:'Azo Sans';letter-spacing:0px;word-spacing:0px;fill:#000000;fill-opacity:1;stroke:none;"
       transform="matrix(0.75000002,0,0,0.75000002,0,5.9999877)"><flowRegion
         id="flowRegion947"
         style="font-size:18.66666664px;"><rect
           id="rect949"
           width="944.60449"
           height="78.997169"
           x="100.84746"
           y="584.91522"
           style="font-size:18.66666664px;" /></flowRegion><flowPara
         id="flowPara951"
         style="font-size:18.66666664px;">Le e-diagnostic se déroule sur le thème &quot;Collaborer en équipe&quot;. Pour Argios, cela correspond à la transparence, la confiance et la collaboration dans le travail entre les membres d'une équipe.</flowPara></flowRoot></g></svg>