<?xml version="1.0" encoding="UTF-8" standalone="no"?>
<!-- Created with Inkscape (http://www.inkscape.org/) -->

<svg
   xmlns:dc="http://purl.org/dc/elements/1.1/"
   xmlns:cc="http://creativecommons.org/ns#"
   xmlns:rdf="http://www.w3.org/1999/02/22-rdf-syntax-ns#"
   xmlns:svg="http://www.w3.org/2000/svg"
   xmlns="http://www.w3.org/2000/svg"
   xmlns:sodipodi="http://sodipodi.sourceforge.net/DTD/sodipodi-0.dtd"
   xmlns:inkscape="http://www.inkscape.org/namespaces/inkscape"
   version="1.1"
   id="svg2"
   xml:space="preserve"
   width="1122.6667"
   height="793.33331"
   viewBox="0 0 1122.6667 793.33331"
   sodipodi:docname="Referential.svg"
   inkscape:version="0.92.5 (2060ec1f9f, 2020-04-08)"><metadata
     id="metadata8"><rdf:RDF><cc:Work
         rdf:about=""><dc:format>image/svg+xml</dc:format><dc:type
           rdf:resource="http://purl.org/dc/dcmitype/StillImage" /><dc:title /></cc:Work></rdf:RDF></metadata><defs
     id="defs6" /><sodipodi:namedview
     pagecolor="#ffffff"
     bordercolor="#666666"
     borderopacity="1"
     objecttolerance="10"
     gridtolerance="10"
     guidetolerance="10"
     inkscape:pageopacity="0"
     inkscape:pageshadow="2"
     inkscape:window-width="1848"
     inkscape:window-height="1016"
     id="namedview4"
     showgrid="false"
     inkscape:zoom="0.84139767"
     inkscape:cx="566.73943"
     inkscape:cy="333.51705"
     inkscape:window-x="72"
     inkscape:window-y="27"
     inkscape:window-maximized="1"
     inkscape:current-layer="layer1"
     inkscape:lockguides="true"
     showguides="true" /><g
     id="g10"
     inkscape:groupmode="layer"
     inkscape:label="emptyPage"
     transform="matrix(1.3333333,0,0,-1.3333333,0,793.33333)"
     style="display:inline"><g
       id="g12"
       transform="translate(2.065496,-2.4680531)"><path
         d="M 0,595 H 842 V 0 H 0 Z"
         style="fill:#f9f9f9;fill-opacity:1;fill-rule:nonzero;stroke:none"
         id="path14"
         inkscape:connector-curvature="0" /></g><g
       id="g16"
       transform="translate(80.467773,538.66675)"><path
         d="M 0,2.091797 H 12.558699 V 3.3e-5 H 0 Z"
         style="fill:#ffc371;fill-opacity:1;fill-rule:nonzero;stroke:none"
         id="path18"
         inkscape:connector-curvature="0" /></g><g
       id="g20"
       transform="translate(92.977783,538.66675)"><path
         d="M 0,2.091797 H 12.558699 V 3.3e-5 H 0 Z"
         style="fill:#ff5f6d;fill-opacity:1;fill-rule:nonzero;stroke:none"
         id="path22"
         inkscape:connector-curvature="0" /></g><g
       id="g24"
       transform="translate(105.43921,538.66675)"><path
         d="M 0,2.091797 H 12.607375 V 3.3e-5 H 0 Z"
         style="fill:#8e2de2;fill-opacity:1;fill-rule:nonzero;stroke:none"
         id="path26"
         inkscape:connector-curvature="0" /></g><g
       id="g28"
       transform="translate(117.94898,538.66675)"><path
         d="M 0,2.091797 H 12.558699 V 3.3e-5 H 0 Z"
         style="fill:#4a00e0;fill-opacity:1;fill-rule:nonzero;stroke:none"
         id="path30"
         inkscape:connector-curvature="0" /></g><g
       id="g32"
       transform="translate(80.467773,543.64233)"><path
         d="M 4.257789,20.351807 C 1.910091,20.351807 0,18.485859 0,16.193001 V -9.9e-5 H 2.77411 V 6.894162 H 5.741954 V -9.9e-5 h 2.77411 v 16.1931 c 0,2.292858 -1.91009,4.158331 -4.257788,4.158331 z M 2.77411,9.603947 v 6.589529 c 0,0.799148 0.665416,1.449022 1.483679,1.449022 0.818262,0 1.483678,-0.649874 1.483678,-1.449022 V 9.603947 H 2.773623 Z"
         style="fill:#250070;fill-opacity:1;fill-rule:nonzero;stroke:none"
         id="path34"
         inkscape:connector-curvature="0" /></g><g
       id="g36"
       transform="translate(99.338379,543.61133)"><path
         d="M 4.257788,20.382812 C 1.91009,20.382812 0,18.51734 0,16.224482 V 4.158335 C 0,1.865477 1.91009,4e-6 4.257788,4e-6 c 2.347698,0 4.257786,1.865473 4.257786,4.158331 v 6.834836 H 4.257788 V 8.283862 H 5.741466 V 4.158335 c 0,-0.799149 -0.665415,-1.449023 -1.483678,-1.449023 -0.818262,0 -1.483679,0.649874 -1.483679,1.449023 v 12.066147 c 0,0.799148 0.665417,1.449022 1.483679,1.449022 0.818263,0 1.483678,-0.649874 1.483678,-1.449022 v -2.614705 h 2.774108 v 2.614705 c 0,2.292858 -1.910088,4.15833 -4.257786,4.15833 z"
         style="fill:#250070;fill-opacity:1;fill-rule:nonzero;stroke:none"
         id="path38"
         inkscape:connector-curvature="0" /></g><g
       id="g40"
       transform="translate(112.59668,543.61328)"><path
         d="M 4.25779,20.382812 C 1.909605,20.382812 0,18.51734 0,16.224482 V 4.158333 C 0,1.865 1.910092,4e-6 4.25779,4e-6 c 2.347697,0 4.257786,1.865471 4.257786,4.158329 v 12.066149 c 0,2.292858 -1.910089,4.15833 -4.257786,4.15833 z M 5.741467,4.158333 c 0,-0.799149 -0.665902,-1.449021 -1.483677,-1.449021 -0.817776,0 -1.483678,0.649872 -1.483678,1.449021 v 12.066149 c 0,0.799148 0.665902,1.449022 1.483678,1.449022 0.817775,0 1.483677,-0.650349 1.483677,-1.449022 z"
         style="fill:#250070;fill-opacity:1;fill-rule:nonzero;stroke:none"
         id="path42"
         inkscape:connector-curvature="0" /></g><g
       id="g44"
       transform="translate(122.01587,543.62622)"><path
         d="m 8.515576,13.596106 v 2.614706 c 0,2.292856 -1.910089,4.158329 -4.257786,4.158329 C 1.910092,20.369141 0,18.503668 0,16.210812 V 15.501513 C 0,14.364828 0.287195,13.237654 0.830432,12.242164 1.452525,11.102629 2.295613,10.06673 3.337303,9.16442 l 0.0073,0.00761 C 4.13561,8.485072 4.772307,7.70494 5.23766,6.852546 5.567691,6.247836 5.742442,5.561357 5.742442,4.867271 V 4.158449 c 0,-0.799148 -0.665416,-1.44902 -1.483678,-1.44902 -0.818262,0 -1.483681,0.649872 -1.483681,1.44902 V 6.773153 H 9.74e-4 V 4.158449 c 0,-2.292858 1.910092,-4.158331 4.25779,-4.158331 2.347698,0 4.257787,1.865473 4.257787,4.158331 v 0.708822 c 0,1.136684 -0.287195,2.263859 -0.830432,3.259348 -0.622094,1.139536 -1.465181,2.175435 -2.506872,3.077746 l -0.00682,-0.0076 c -0.791003,0.686955 -1.4277,1.467087 -1.893053,2.319481 -0.330031,0.60471 -0.504295,1.291187 -0.504295,1.985274 v 0.709299 c 0,0.799148 0.665419,1.44902 1.483681,1.44902 0.818262,0 1.483678,-0.649872 1.483678,-1.44902 v -2.614706 h 2.774109 -9.75e-4 z"
         style="fill:#250070;fill-opacity:1;fill-rule:nonzero;stroke:none"
         id="path46"
         inkscape:connector-curvature="0" /></g><g
       id="g48"
       transform="translate(89.82251,543.61084)"><path
         d="M 4.257788,20.383301 H 0 V 1.5e-5 h 2.77411 v 6.899493 h 1.483678 c 0.818263,0 1.483679,-0.649873 1.483679,-1.449023 V 4.92e-4 h 2.774109 v 5.449993 c 0,1.035899 -0.389903,1.984324 -1.033901,2.713113 0.220507,0.23675 0.382114,0.472074 0.496505,0.670316 0.511597,0.886622 0.537396,1.746147 0.537396,1.909209 v 5.481847 c 0,2.292858 -1.91009,4.158331 -4.257788,4.158331 z M 2.77411,9.608816 v 8.064699 h 1.483678 c 0.818263,0 1.483679,-0.649872 1.483679,-1.44902 V 10.760713 C 5.738547,10.716025 5.713234,10.393229 5.529234,10.111792 5.388557,9.895959 5.103311,9.608816 4.257302,9.608816 H 2.773623 Z m 2.967845,1.147618 v -0.01331 c 0,0 0,0.0048 0,0.01331 z"
         style="fill:#250070;fill-opacity:1;fill-rule:nonzero;stroke:none"
         id="path50"
         inkscape:connector-curvature="0" /></g><g
       id="g52"
       transform="translate(108.91895,564.66675)"><path
         d="M 2.774109,2.666504 H 0 V -1.9e-5 h 2.774109 z"
         style="fill:#250070;fill-opacity:1;fill-rule:nonzero;stroke:none"
         id="path54"
         inkscape:connector-curvature="0" /></g><g
       id="g56"
       transform="translate(108.91895,543.61108)"><path
         d="M 2.774109,20.068604 H 0 V 3.4e-5 h 2.774109 z"
         style="fill:#250070;fill-opacity:1;fill-rule:nonzero;stroke:none"
         id="path58"
         inkscape:connector-curvature="0" /></g></g><g
     inkscape:groupmode="layer"
     id="layer1"
     inkscape:label="emptyPage 1"><path
   style="opacity:0.878;fill:#ffffff;fill-opacity:1;stroke:#000000;stroke-width:1px;stroke-linecap:butt;stroke-linejoin:miter;stroke-opacity:1"
   d="m 331.27908,524.52879 c -9.53845,-0.1263 -222.33226,0 -222.33226,0 0,0 -14.77933,-1.92638 -14.77933,-17.97959 0,0 -11.8877,-89.25582 64.2579,-131.63629 2.249,-0.64213 52.69148,-38.20663 124.33901,0 0,0 70.68365,34.35386 60.08111,135.168 -0.49595,15.86657 -11.65845,13.53337 -11.56643,14.44788 z"
   id="path927"
   inkscape:connector-curvature="0"
   sodipodi:nodetypes="cccccc" /><g
   id="g939"
   transform="matrix(-0.32727722,-0.43012303,0.43001069,-0.32741494,498.73544,1340.2619)"
   style="stroke-width:1.85022521"><path
     inkscape:connector-curvature="0"
     id="path935"
     d="m 1630.0565,563.69668 c -1.2114,-1.7481 -3.9518,-4.2553 -6.3387,-5.79937 -3.4426,-2.22701 -5.9808,-3.10724 -12.2058,-4.23292 -0.4883,-0.0883 -0.642,-0.26528 -0.5159,-0.59398 0.3021,-0.78724 6.2246,-8.35119 20.6731,-26.40274 20.4553,-25.55627 40.547,-50.32994 40.6333,-50.10205 0.082,0.21504 -40.8448,87.68609 -41.2097,88.077 -0.1202,0.12874 -0.5865,-0.29693 -1.0363,-0.94594 z"
     style="opacity:0.98000004;fill:#4c566d;fill-opacity:1;stroke:none;stroke-width:17.20709419;stroke-miterlimit:4;stroke-dasharray:none;stroke-opacity:1" /><path
     d="m 1603.0535,598.84927 a 25.849846,25.849846 0 0 1 -16.2433,-32.75007 25.849846,25.849846 0 0 1 32.7499,-16.24373 25.849846,25.849846 0 0 1 16.2441,32.74965 25.849846,25.849846 0 0 1 -32.7494,16.24458"
     sodipodi:open="true"
     sodipodi:end="1.8957243"
     sodipodi:start="1.8957766"
     sodipodi:ry="25.849846"
     sodipodi:rx="25.849846"
     sodipodi:cy="574.35248"
     sodipodi:cx="1611.3071"
     sodipodi:type="arc"
     id="path929"
     style="opacity:1;fill:#4c566d;fill-opacity:1;stroke:none;stroke-width:17.20709419;stroke-miterlimit:4;stroke-dasharray:none;stroke-opacity:1" /></g><path
   style="fill:#f1f8fb;fill-opacity:1;stroke:#000000;stroke-width:1px;stroke-linecap:butt;stroke-linejoin:miter;stroke-opacity:1"
   d="m 113.42931,475.48464 h 18.17492 c 0,0 0.68151,-40.63777 37.59925,-64.8161 l -9.99617,-16.68646 c 0,0 -44.75566,32.69184 -45.778,81.50256 z"
   id="path941"
   inkscape:connector-curvature="0" /><path
   inkscape:connector-curvature="0"
   id="path943"
   d="m 172.85281,386.72071 8.66128,15.96721 c 0,0 36.07642,-18.76727 74.94078,2.14386 l 9.91643,-16.7339 c 0,0 -50.08941,-23.73984 -93.51849,-1.37717 z"
   style="fill:#88459f;fill-opacity:1;stroke:#000000;stroke-width:1px;stroke-linecap:butt;stroke-linejoin:miter;stroke-opacity:1" /><path
   inkscape:connector-curvature="0"
   id="path945"
   d="m 324.23352,475.25761 h -18.17491 c 0,0 -0.68151,-40.63777 -37.59926,-64.8161 l 9.99618,-16.68646 c 0,0 44.75565,32.69184 45.77799,81.50256 z"
   style="fill:#4d004b;fill-opacity:1;stroke:#000000;stroke-width:1px;stroke-linecap:butt;stroke-linejoin:miter;stroke-opacity:1" /><g
   id="g979"><path
     style="opacity:0.878;fill:#ffffff;fill-opacity:1;stroke:#000000;stroke-width:1px;stroke-linecap:butt;stroke-linejoin:miter;stroke-opacity:1"
     d="m 2207.1927,115.5151 c -19.4346,-0.25755 -453.002,0 -453.002,0 0,0 -30.1129,-3.92816 -30.1129,-36.662769 0,0 -24.2212,-182.004491 130.9255,-268.423881 4.5823,-1.30939 107.3589,-77.90839 253.3408,0 0,0 144.0179,70.05208 122.4152,275.625491 -1.0105,32.354049 -23.7541,27.596349 -23.5666,29.461159 z"
     id="path958"
     inkscape:connector-curvature="0"
     sodipodi:nodetypes="cccccc" /><g
     id="g964"
     transform="matrix(0.95707454,-0.54552569,0.5454714,0.95716979,119.03521,336.55462)"
     style="stroke-width:0.90772229"><path
       inkscape:connector-curvature="0"
       id="path960"
       d="m 1630.0565,563.69668 c -1.2114,-1.7481 -3.9518,-4.2553 -6.3387,-5.79937 -3.4426,-2.22701 -5.9808,-3.10724 -12.2058,-4.23292 -0.4883,-0.0883 -0.642,-0.26528 -0.5159,-0.59398 0.3021,-0.78724 6.2246,-8.35119 20.6731,-26.40274 20.4553,-25.55627 40.547,-50.32994 40.6333,-50.10205 0.082,0.21504 -40.8448,87.68609 -41.2097,88.077 -0.1202,0.12874 -0.5865,-0.29693 -1.0363,-0.94594 z"
       style="opacity:0.98000004;fill:#4c566d;fill-opacity:1;stroke:none;stroke-width:8.44181728;stroke-miterlimit:4;stroke-dasharray:none;stroke-opacity:1" /><path
       d="m 1603.0535,598.84927 a 25.849846,25.849846 0 0 1 -16.2433,-32.75007 25.849846,25.849846 0 0 1 32.7499,-16.24373 25.849846,25.849846 0 0 1 16.2441,32.74965 25.849846,25.849846 0 0 1 -32.7494,16.24458"
       sodipodi:open="true"
       sodipodi:end="1.8957243"
       sodipodi:start="1.8957766"
       sodipodi:ry="25.849846"
       sodipodi:rx="25.849846"
       sodipodi:cy="574.35248"
       sodipodi:cx="1611.3071"
       sodipodi:type="arc"
       id="path962"
       style="opacity:1;fill:#4c566d;fill-opacity:1;stroke:none;stroke-width:8.44181728;stroke-miterlimit:4;stroke-dasharray:none;stroke-opacity:1" /></g><path
     style="fill:#f1f8fb;fill-opacity:1;stroke:#000000;stroke-width:1px;stroke-linecap:butt;stroke-linejoin:miter;stroke-opacity:1"
     d="m 1763.3238,15.507561 h 37.0314 c 0,0 1.3885,-82.86581 76.6085,-132.168641 l -20.3673,-34.0259 c 0,0 -91.1896,66.663001 -93.2726,166.194541 z"
     id="path966"
     inkscape:connector-curvature="0" /><path
     inkscape:connector-curvature="0"
     id="path968"
     d="m 1884.3992,-165.49389 17.6473,32.55927 c 0,0 73.5057,-38.26896 152.6919,4.37161 l 20.2047,-34.12265 c 0,0 -102.0572,-48.40868 -190.5439,-2.80823 z"
     style="fill:#88459f;fill-opacity:1;stroke:#000000;stroke-width:1px;stroke-linecap:butt;stroke-linejoin:miter;stroke-opacity:1" /><path
     inkscape:connector-curvature="0"
     id="path970"
     d="m 2192.8374,15.044621 h -37.0314 c 0,0 -1.3886,-82.86581 -76.6085,-132.168641 l 20.3672,-34.0259 c 0,0 91.1897,66.663001 93.2727,166.194541 z"
     style="fill:#4d004b;fill-opacity:1;stroke:#000000;stroke-width:1px;stroke-linecap:butt;stroke-linejoin:miter;stroke-opacity:1" /></g><path
   sodipodi:nodetypes="cccccc"
   inkscape:connector-curvature="0"
   id="path1011"
   d="m 672.55215,524.52879 c -9.53845,-0.1263 -222.33226,0 -222.33226,0 0,0 -14.77934,-1.92638 -14.77934,-17.97959 0,0 -11.88768,-89.25582 64.25792,-131.63629 2.24899,-0.64213 52.69147,-38.20663 124.33901,0 0,0 70.68364,34.35386 60.0811,135.168 -0.49595,15.86657 -11.65845,13.53337 -11.56643,14.44788 z"
   style="opacity:0.878;fill:#ffffff;fill-opacity:1;stroke:#000000;stroke-width:1px;stroke-linecap:butt;stroke-linejoin:miter;stroke-opacity:1" /><g
   style="stroke-width:1.85022521"
   transform="matrix(0.46527793,-0.2750139,0.27516375,0.46518237,-348.36367,640.88027)"
   id="g1017"><path
     style="opacity:0.98000004;fill:#4c566d;fill-opacity:1;stroke:none;stroke-width:17.20709419;stroke-miterlimit:4;stroke-dasharray:none;stroke-opacity:1"
     d="m 1630.0565,563.69668 c -1.2114,-1.7481 -3.9518,-4.2553 -6.3387,-5.79937 -3.4426,-2.22701 -5.9808,-3.10724 -12.2058,-4.23292 -0.4883,-0.0883 -0.642,-0.26528 -0.5159,-0.59398 0.3021,-0.78724 6.2246,-8.35119 20.6731,-26.40274 20.4553,-25.55627 40.547,-50.32994 40.6333,-50.10205 0.082,0.21504 -40.8448,87.68609 -41.2097,88.077 -0.1202,0.12874 -0.5865,-0.29693 -1.0363,-0.94594 z"
     id="path1013"
     inkscape:connector-curvature="0" /><path
     style="opacity:1;fill:#4c566d;fill-opacity:1;stroke:none;stroke-width:17.20709419;stroke-miterlimit:4;stroke-dasharray:none;stroke-opacity:1"
     id="path1015"
     sodipodi:type="arc"
     sodipodi:cx="1611.3071"
     sodipodi:cy="574.35248"
     sodipodi:rx="25.849846"
     sodipodi:ry="25.849846"
     sodipodi:start="1.8957766"
     sodipodi:end="1.8957243"
     sodipodi:open="true"
     d="m 1603.0535,598.84927 a 25.849846,25.849846 0 0 1 -16.2433,-32.75007 25.849846,25.849846 0 0 1 32.7499,-16.24373 25.849846,25.849846 0 0 1 16.2441,32.74965 25.849846,25.849846 0 0 1 -32.7494,16.24458" /></g><path
   inkscape:connector-curvature="0"
   id="path1019"
   d="m 454.70238,475.48464 h 18.17492 c 0,0 0.68151,-40.63777 37.59926,-64.8161 l -9.99618,-16.68646 c 0,0 -44.75566,32.69184 -45.778,81.50256 z"
   style="fill:#f1f8fb;fill-opacity:1;stroke:#000000;stroke-width:1px;stroke-linecap:butt;stroke-linejoin:miter;stroke-opacity:1" /><path
   style="fill:#88459f;fill-opacity:1;stroke:#000000;stroke-width:1px;stroke-linecap:butt;stroke-linejoin:miter;stroke-opacity:1"
   d="m 514.12588,386.72071 8.66128,15.96721 c 0,0 36.07642,-18.76727 74.94078,2.14386 l 9.91643,-16.7339 c 0,0 -50.08941,-23.73984 -93.51849,-1.37717 z"
   id="path1021"
   inkscape:connector-curvature="0" /><path
   style="fill:#4d004b;fill-opacity:1;stroke:#000000;stroke-width:1px;stroke-linecap:butt;stroke-linejoin:miter;stroke-opacity:1"
   d="m 665.5066,475.25761 h -18.17492 c 0,0 -0.68151,-40.63777 -37.59926,-64.8161 l 9.99618,-16.68646 c 0,0 44.75566,32.69184 45.778,81.50256 z"
   id="path1023"
   inkscape:connector-curvature="0" /><path
   style="opacity:0.878;fill:#ffffff;fill-opacity:1;stroke:#000000;stroke-width:1px;stroke-linecap:butt;stroke-linejoin:miter;stroke-opacity:1"
   d="m 1011.8253,524.52879 c -9.5386,-0.1263 -222.33234,0 -222.33234,0 0,0 -14.77934,-1.92638 -14.77934,-17.97959 0,0 -11.88768,-89.25582 64.25792,-131.63629 2.24899,-0.64213 52.69147,-38.20663 124.33898,0 0,0 70.68368,34.35386 60.08108,135.168 -0.4959,15.86657 -11.6584,13.53337 -11.5663,14.44788 z"
   id="path1027"
   inkscape:connector-curvature="0"
   sodipodi:nodetypes="cccccc" /><g
   id="g1033"
   transform="matrix(0.2870381,-0.45795779,-0.45785836,-0.28718541,700.22185,1370.0652)"
   style="stroke-width:1.85022521"><path
     inkscape:connector-curvature="0"
     id="path1029"
     d="m 1630.0565,563.69668 c -1.2114,-1.7481 -3.9518,-4.2553 -6.3387,-5.79937 -3.4426,-2.22701 -5.9808,-3.10724 -12.2058,-4.23292 -0.4883,-0.0883 -0.642,-0.26528 -0.5159,-0.59398 0.3021,-0.78724 6.2246,-8.35119 20.6731,-26.40274 20.4553,-25.55627 40.547,-50.32994 40.6333,-50.10205 0.082,0.21504 -40.8448,87.68609 -41.2097,88.077 -0.1202,0.12874 -0.5865,-0.29693 -1.0363,-0.94594 z"
     style="opacity:0.98000004;fill:#4c566d;fill-opacity:1;stroke:none;stroke-width:17.20709419;stroke-miterlimit:4;stroke-dasharray:none;stroke-opacity:1" /><path
     d="m 1603.0535,598.84927 a 25.849846,25.849846 0 0 1 -16.2433,-32.75007 25.849846,25.849846 0 0 1 32.7499,-16.24373 25.849846,25.849846 0 0 1 16.2441,32.74965 25.849846,25.849846 0 0 1 -32.7494,16.24458"
     sodipodi:open="true"
     sodipodi:end="1.8957243"
     sodipodi:start="1.8957766"
     sodipodi:ry="25.849846"
     sodipodi:rx="25.849846"
     sodipodi:cy="574.35248"
     sodipodi:cx="1611.3071"
     sodipodi:type="arc"
     id="path1031"
     style="opacity:1;fill:#4c566d;fill-opacity:1;stroke:none;stroke-width:17.20709419;stroke-miterlimit:4;stroke-dasharray:none;stroke-opacity:1" /></g><path
   style="fill:#f1f8fb;fill-opacity:1;stroke:#000000;stroke-width:1px;stroke-linecap:butt;stroke-linejoin:miter;stroke-opacity:1"
   d="m 793.97545,475.48464 h 18.17492 c 0,0 0.68151,-40.63777 37.59926,-64.8161 l -9.99618,-16.68646 c 0,0 -44.75566,32.69184 -45.778,81.50256 z"
   id="path1035"
   inkscape:connector-curvature="0" /><path
   inkscape:connector-curvature="0"
   id="path1037"
   d="m 853.39895,386.72071 8.66128,15.96721 c 0,0 36.07642,-18.76727 74.94075,2.14386 l 9.91642,-16.7339 c 0,0 -50.08937,-23.73984 -93.51845,-1.37717 z"
   style="fill:#88459f;fill-opacity:1;stroke:#000000;stroke-width:1px;stroke-linecap:butt;stroke-linejoin:miter;stroke-opacity:1" /><path
   inkscape:connector-curvature="0"
   id="path1039"
   d="m 1004.7797,475.25761 h -18.17496 c 0,0 -0.68149,-40.63777 -37.59923,-64.8161 l 9.99616,-16.68646 c 0,0 44.75563,32.69184 45.77803,81.50256 z"
   style="fill:#4d004b;fill-opacity:1;stroke:#000000;stroke-width:1px;stroke-linecap:butt;stroke-linejoin:miter;stroke-opacity:1" /><flowRoot
   xml:space="preserve"
   id="flowRoot1043"
   style="font-style:normal;font-weight:normal;font-size:16px;line-height:1.25;font-family:'Azo Sans';letter-spacing:0px;word-spacing:0px;fill:#000000;fill-opacity:1;stroke:none;-inkscape-font-specification:'Azo Sans';font-stretch:normal;font-variant:normal;"><flowRegion
     id="flowRegion1045"
     style="-inkscape-font-specification:'Azo Sans';font-family:'Azo Sans';font-weight:normal;font-style:normal;font-stretch:normal;font-variant:normal;"><rect
       id="rect1047"
       width="869.98102"
       height="278.10867"
       x="121.22686"
       y="128.96257"
       style="-inkscape-font-specification:'Azo Sans';font-family:'Azo Sans';font-weight:normal;font-style:normal;font-stretch:normal;font-variant:normal;" /></flowRegion><flowPara
     id="flowPara1049"
     style="font-weight:bold;font-size:18.66666603px;line-height:1.5;-inkscape-font-specification:'Azo Sans';font-family:'Azo Sans';font-style:normal;font-stretch:normal;font-variant:normal">L'impacte des dysfonctionnements</flowPara><flowPara
     id="flowPara1053"
     style="line-height:1.5;-inkscape-font-specification:'Azo Sans';font-family:'Azo Sans';font-weight:normal;font-style:normal;font-stretch:normal;font-variant:normal;" /><flowPara
     style="line-height:1.5;-inkscape-font-specification:'Azo Sans';font-family:'Azo Sans';font-weight:normal;font-style:normal;font-stretch:normal;font-variant:normal;font-size:18.66666667px"
     id="flowPara1061">Chaque dysfonctionnement a un score de &quot;sévérité&quot; selon le dysfonctiothèque. Cela varie entre 1 et 100. Un dysfonctionnement sera plus ou moins impactant en fonction de votre secteur d'activié et du contexte général.</flowPara><flowPara
     style="line-height:1.5;-inkscape-font-specification:'Azo Sans';font-family:'Azo Sans';font-weight:normal;font-style:normal;font-stretch:normal;font-variant:normal;font-size:18.66666667px"
     id="flowPara1063" /><flowPara
     style="line-height:1.5;-inkscape-font-specification:'Azo Sans';font-family:'Azo Sans';font-weight:normal;font-style:normal;font-stretch:normal;font-variant:normal;font-size:18.66666667px"
     id="flowPara1065">Voici quelques exemples :</flowPara></flowRoot><text
   xml:space="preserve"
   style="font-style:normal;font-weight:normal;font-size:16px;line-height:1.25;font-family:sans-serif;letter-spacing:0px;word-spacing:0px;fill:#000000;fill-opacity:1;stroke:none"
   x="437.36749"
   y="149.16704"
   id="text1057"><tspan
     sodipodi:role="line"
     id="tspan1055"
     x="437.36749"
     y="163.32329" /><tspan
     sodipodi:role="line"
     x="437.36749"
     y="183.32329"
     id="tspan1059" /></text>


<flowRoot
   xml:space="preserve"
   id="flowRoot1067"
   style="font-style:normal;font-weight:normal;font-size:16px;line-height:1.5;font-family:'Azo Sans';letter-spacing:0px;word-spacing:0px;fill:#000000;fill-opacity:1;stroke:none;-inkscape-font-specification:'Azo Sans';font-stretch:normal;font-variant:normal;"
   transform="translate(41.597452,-73.686916)"><flowRegion
     id="flowRegion1069"
     style="line-height:1.5;-inkscape-font-specification:'Azo Sans';font-family:'Azo Sans';font-weight:normal;font-style:normal;font-stretch:normal;font-variant:normal;"><rect
       id="rect1071"
       width="275.73169"
       height="118.84986"
       x="42.78595"
       y="623.37799"
       style="line-height:1.5;-inkscape-font-specification:'Azo Sans';font-family:'Azo Sans';font-weight:normal;font-style:normal;font-stretch:normal;font-variant:normal;" /></flowRegion><flowPara
     id="flowPara1073"><flowSpan
   style="font-weight:bold;line-height:1.5;-inkscape-font-specification:'Azo Sans';font-family:'Azo Sans';font-style:normal;font-stretch:normal;font-variant:normal"
   id="flowSpan1079">Dysfonctionnement :</flowSpan> Les repas à la cantine sont &quot;bofs&quot;</flowPara><flowPara
     id="flowPara1077"><flowSpan
   style="font-weight:bold;line-height:1.5;-inkscape-font-specification:'Azo Sans';font-family:'Azo Sans';font-style:normal;font-stretch:normal;font-variant:normal"
   id="flowSpan1081">Impact :</flowSpan> Légère</flowPara><flowPara
     id="flowPara1075"><flowSpan
   style="font-weight:bold;-inkscape-font-specification:'Azo Sans';font-family:'Azo Sans';font-style:normal;font-stretch:normal;font-variant:normal"
   id="flowSpan909">Référence numérique :</flowSpan> 1</flowPara></flowRoot><flowRoot
   transform="translate(381.50807,-76.063913)"
   style="font-style:normal;font-weight:normal;font-size:16px;line-height:1.5;font-family:sans-serif;text-align:start;letter-spacing:0px;word-spacing:0px;text-anchor:start;fill:#000000;fill-opacity:1;stroke:none"
   id="flowRoot1097"
   xml:space="preserve"><flowRegion
     id="flowRegion1085"
     style="line-height:1.5;text-align:start;text-anchor:start"><rect
       y="623.37799"
       x="42.78595"
       height="177.25734"
       width="287.91742"
       id="rect1083"
       style="line-height:1.5;text-align:start;text-anchor:start" /></flowRegion><flowPara
     id="flowPara1089"
     style="-inkscape-font-specification:'Azo Sans Light';font-family:'Azo Sans';font-weight:300;font-style:normal;font-stretch:normal;font-variant:normal"><flowSpan
   style="font-weight:bold"
   id="flowSpan918">Dysfonctionnement :</flowSpan> Le &quot;data center&quot; est squatté par une famille de ratons laveurs qui ne fait que s'agrandir.  </flowPara><flowPara
     id="flowPara1093"
     style="-inkscape-font-specification:'Azo Sans Light';font-family:'Azo Sans';font-weight:300;font-style:normal;font-stretch:normal;font-variant:normal"><flowSpan
   style="font-weight:bold"
   id="flowSpan920">Impact :</flowSpan> Important</flowPara><flowPara
     id="flowPara1095"
     style="-inkscape-font-specification:'Azo Sans Light';font-family:'Azo Sans';font-weight:300;font-style:normal;font-stretch:normal;font-variant:normal"><flowSpan
   style="font-weight:bold"
   id="flowSpan922">Référence numérique :</flowSpan> 30</flowPara></flowRoot><flowRoot
   xml:space="preserve"
   id="flowRoot1113"
   style="font-style:normal;font-weight:normal;font-size:16px;line-height:1.5;font-family:sans-serif;letter-spacing:0px;word-spacing:0px;fill:#000000;fill-opacity:1;stroke:none"
   transform="translate(723.79568,-77.252412)"><flowRegion
     id="flowRegion1101"
     style="line-height:1.5"><rect
       id="rect1099"
       width="310.19815"
       height="183.02878"
       x="42.78595"
       y="623.37799"
       style="line-height:1.5" /></flowRegion><flowPara
     id="flowPara1105"
     style="-inkscape-font-specification:'Azo Sans Light';font-family:'Azo Sans';font-weight:300;font-style:normal;font-stretch:normal;font-variant:normal"><flowSpan
   style="font-weight:bold"
   id="flowSpan924">Dysfonctionnement :</flowSpan> On est à 9000m d'altitude et les 2 pilotes viennent de s'évanouir.</flowPara><flowPara
     id="flowPara1109"
     style="-inkscape-font-specification:'Azo Sans Light';font-family:'Azo Sans';font-weight:300;font-style:normal;font-stretch:normal;font-variant:normal"><flowSpan
   style="font-weight:bold"
   id="flowSpan926">Impact :</flowSpan> Lourde</flowPara><flowPara
     id="flowPara1111"
     style="-inkscape-font-specification:'Azo Sans Light';font-family:'Azo Sans';font-weight:300;font-style:normal;font-stretch:normal;font-variant:normal"><flowSpan
   style="font-weight:bold"
   id="flowSpan928">Référence numérique :</flowSpan> 100</flowPara></flowRoot></g></svg>